<svg xmlns="http://www.w3.org/2000/svg" width="57.533" height="57.648" viewBox="0 0 57.533 57.648">
  <g id="Group_178" data-name="Group 178" transform="translate(-4.101)">
    <g id="Group_173" data-name="Group 173" transform="translate(4.101 0)">
      <g id="mTfRQv.tif" transform="translate(0 0)">
        <g id="Group_159" data-name="Group 159" transform="translate(0 0)">
          <path id="Path_406" data-name="Path 406" d="M1175.194,268.947c.391.119.792.212,1.17.363a4.932,4.932,0,1,1-2.883-.246c.124-.029.243-.077.365-.117Zm2.584,4.947a3.252,3.252,0,1,0-3.248,3.262A3.26,3.26,0,0,0,1177.778,273.894Z" transform="translate(-1145.19 -268.947)" fill="#2158bc"/>
          <path id="Path_407" data-name="Path 407" d="M952.889,485.381c.095-.321.175-.648.286-.963a4.933,4.933,0,0,1,9.587,1.773,4.931,4.931,0,0,1-9.684,1.184c-.061-.215-.126-.428-.189-.643Zm4.942-2.584a3.258,3.258,0,1,0,3.249,3.263A3.264,3.264,0,0,0,957.831,482.8Z" transform="translate(-952.889 -457.232)" fill="#2158bc"/>
          <path id="Path_408" data-name="Path 408" d="M1168.831,702.9a13.55,13.55,0,0,1-1.52-.54,4.933,4.933,0,0,1,2.728-9.322,4.943,4.943,0,0,1,.45,9.756,2.52,2.52,0,0,0-.31.106Zm.645-1.693a3.257,3.257,0,1,0-3.222-3.284A3.265,3.265,0,0,0,1169.476,701.2Z" transform="translate(-1140.737 -645.249)" fill="#2158bc"/>
          <path id="Path_411" data-name="Path 411" d="M1015.249,306.877c-.41-.18-.72-.306-1.02-.452a.841.841,0,0,1-.507-1.1.827.827,0,0,1,1.12-.451c1,.405,2,.833,2.991,1.273a.8.8,0,0,1,.45,1.118q-.6,1.511-1.268,3a.81.81,0,0,1-1.116.447.837.837,0,0,1-.4-1.136c.129-.347.281-.685.462-1.123-.266.106-.452.168-.626.252a22.953,22.953,0,0,0-11.76,12.628c-.055.139-.1.283-.16.419a.826.826,0,0,1-1.071.552.811.811,0,0,1-.491-1.138c.23-.632.473-1.263.758-1.872a24.591,24.591,0,0,1,12.106-12.153C1014.863,307.068,1015.013,306.992,1015.249,306.877Z" transform="translate(-996.27 -300.766)" fill="#2158bc"/>
          <path id="Path_412" data-name="Path 412" d="M992.49,592.149c-.186.433-.32.779-.482,1.111a.834.834,0,0,1-1.062.485.817.817,0,0,1-.481-1.109q.606-1.541,1.287-3.052a.765.765,0,0,1,1.074-.427c1,.409,2.007.822,3,1.261a.8.8,0,0,1,.475,1.1.841.841,0,0,1-1.129.436c-.177-.059-.346-.143-.518-.214l-.444-.182-.117.1c.5.883.969,1.794,1.522,2.646a22.877,22.877,0,0,0,11.236,9.111,3.884,3.884,0,0,1,.363.148.809.809,0,0,1,.446,1.071.8.8,0,0,1-1.058.476c-.667-.241-1.329-.506-1.971-.808a24.6,24.6,0,0,1-11.875-11.649C992.686,592.526,992.616,592.394,992.49,592.149Z" transform="translate(-986.174 -553.034)" fill="#2158bc"/>
          <path id="Path_413" data-name="Path 413" d="M1275.488,604.392c.439.191.785.326,1.116.489a.839.839,0,0,1,.479,1.069.82.82,0,0,1-1.111.474q-1.536-.614-3.042-1.3a.768.768,0,0,1-.42-1.078c.41-1.005.827-2.008,1.266-3a.8.8,0,0,1,1.106-.469.838.838,0,0,1,.427,1.132c-.116.326-.261.642-.393.962l.128.149c1.2-.742,2.443-1.418,3.587-2.237a22.8,22.8,0,0,0,8.143-10.642c.02-.052.031-.109.053-.16.229-.545.634-.769,1.094-.605a.837.837,0,0,1,.474,1.195,24.2,24.2,0,0,1-3.882,6.929,24.634,24.634,0,0,1-8.518,6.833C1275.859,604.2,1275.728,604.268,1275.488,604.392Z" transform="translate(-1236.45 -553.073)" fill="#2158bc"/>
          <path id="Path_414" data-name="Path 414" d="M1291.908,332.535c.189-.439.323-.785.485-1.117a.829.829,0,0,1,1.064-.48.817.817,0,0,1,.475,1.11q-.606,1.54-1.286,3.051a.771.771,0,0,1-1.078.423c-1-.408-2-.824-3-1.262a.8.8,0,0,1-.473-1.1.835.835,0,0,1,1.128-.433,4.057,4.057,0,0,0,1.075.3c-.472-.837-.9-1.7-1.421-2.508a22.869,22.869,0,0,0-10.647-8.976,4.286,4.286,0,0,1-.611-.278.824.824,0,0,1,.55-1.525,2.227,2.227,0,0,1,.531.169,24.653,24.653,0,0,1,12.917,12.071C1291.7,332.125,1291.775,332.274,1291.908,332.535Z" transform="translate(-1240.689 -314.006)" fill="#2158bc"/>
          <path id="Path_415" data-name="Path 415" d="M1386.075,485.969a4.935,4.935,0,1,1-4.892-4.971A4.951,4.951,0,0,1,1386.075,485.969Zm-1.685-.025a3.251,3.251,0,1,0-3.249,3.258A3.265,3.265,0,0,0,1384.39,485.944Z" transform="translate(-1328.542 -457.122)" fill="#2158bc"/>
        </g>
      </g>
      <path id="Icon_ionic-ios-close" data-name="Icon ionic-ios-close" d="M20.058,18.379l5.066-5.066a1.187,1.187,0,1,0-1.679-1.679L18.379,16.7l-5.066-5.066a1.187,1.187,0,1,0-1.679,1.679L16.7,18.379l-5.066,5.066a1.187,1.187,0,0,0,1.679,1.679l5.066-5.066,5.066,5.066a1.187,1.187,0,1,0,1.679-1.679Z" transform="translate(10.509 10.75)" fill="#2158bc"/>
    </g>
  </g>
</svg>
